<?xml version="1.0" standalone="no"?>
<!DOCTYPE svg PUBLIC "-//W3C//DTD SVG 20010904//EN"
 "http://www.w3.org/TR/2001/REC-SVG-20010904/DTD/svg10.dtd">
<svg version="1.0" xmlns="http://www.w3.org/2000/svg"
 width="439.000000pt" height="439.000000pt" viewBox="0 0 439.000000 439.000000"
 preserveAspectRatio="xMidYMid meet">
<metadata>
Created by potrace 1.14, written by Peter Selinger 2001-2017
</metadata>
<g transform="translate(0.000000,439.000000) scale(0.100000,-0.100000)"
fill="#000000" stroke="none">
<path d="M2057 4376 c-26 -7 -50 -14 -53 -14 -2 -1 -25 -10 -50 -22 -26 -11
-49 -20 -51 -20 -14 0 -113 -80 -156 -125 -56 -59 -121 -185 -141 -274 -21
-92 -15 -217 15 -310 36 -110 78 -184 387 -686 58 -93 119 -194 136 -222 17
-29 33 -53 36 -53 3 0 23 30 45 66 22 36 52 84 67 107 15 23 33 52 40 64 16
27 148 238 193 308 18 28 48 76 68 107 51 80 157 304 173 363 20 74 12 244
-15 319 -63 177 -197 312 -371 373 -88 31 -243 40 -323 19z m219 -270 c76 -16
159 -89 202 -175 23 -47 27 -69 27 -136 0 -68 -5 -89 -30 -138 -90 -180 -315
-234 -481 -115 -110 79 -154 219 -112 357 31 100 121 182 233 212 29 8 117 5
161 -5z"/>
<path d="M1348 3365 c-2 -1 -34 -5 -73 -8 -76 -7 -80 -7 -175 -32 -149 -38
-355 -163 -447 -271 -82 -95 -91 -107 -134 -182 -85 -148 -141 -348 -166 -587
-10 -90 -10 -421 -1 -505 43 -387 182 -772 391 -1080 33 -48 138 -192 147
-200 3 -3 34 -39 70 -80 109 -125 166 -177 276 -251 250 -168 515 -198 817
-92 101 36 166 33 308 -11 117 -37 142 -41 266 -52 197 -18 444 73 618 226
263 231 429 463 591 827 55 124 132 374 148 488 4 22 8 47 11 55 2 8 6 35 9
60 3 25 8 70 11 100 11 98 13 142 15 320 1 184 -2 232 -26 370 -31 177 -95
337 -189 475 -26 38 -53 74 -59 81 -6 6 -31 36 -56 65 -63 74 -178 162 -263
203 -69 33 -180 62 -276 72 -60 6 -279 6 -289 1 -4 -3 -35 -8 -69 -12 -115
-12 -110 -8 -197 -156 -43 -74 -140 -237 -216 -364 -75 -126 -150 -254 -166
-282 -16 -29 -32 -53 -36 -53 -5 0 -42 56 -93 142 -5 9 -26 43 -45 75 -19 32
-37 63 -40 68 -5 10 -215 360 -289 481 -44 72 -74 86 -211 99 -91 9 -158 13
-162 10z"/>
</g>
</svg>
